<svg width="823" height="822" viewBox="0 0 823 822" fill="none" xmlns="http://www.w3.org/2000/svg">
    <path fill-rule="evenodd" clip-rule="evenodd" d="M411.5 8.21094C633.68 8.21094 813.89 188.386 813.89 410.61C813.89 632.8 633.72 813.01 411.5 813.01C189.32 813.01 9.10986 632.84 9.10986 410.61C9.10986 188.424 189.28 8.21094 411.5 8.21094Z" stroke="#115799" stroke-width="16.426" stroke-linecap="round" stroke-linejoin="round"/>
    <path fill-rule="evenodd" clip-rule="evenodd" d="M411.5 8.21094C633.68 8.21094 813.89 188.386 813.89 410.61C813.89 632.8 633.72 813.01 411.5 813.01C189.32 813.01 9.10986 632.84 9.10986 410.61C9.10986 188.424 189.28 8.21094 411.5 8.21094Z" fill="#FEFEFE"/>
    <path fill-rule="evenodd" clip-rule="evenodd" d="M411.5 23.251C625.4 23.251 798.85 196.712 798.85 410.61C798.85 624.51 625.4 797.97 411.5 797.97C197.6 797.97 24.1499 624.51 24.1499 410.61C24.1499 196.712 197.6 23.251 411.5 23.251Z" fill="#115799"/>
    <path fill-rule="evenodd" clip-rule="evenodd" d="M611.16 386.52C455.28 377.69 574.25 543.02 410.39 630.92C621.9 608.44 534.2 438.01 611.16 386.52Z" fill="#FEFEFE"/>
    <path fill-rule="evenodd" clip-rule="evenodd" d="M434.14 200.318C422.78 255.606 310.98 281.85 257.57 326.7C161.19 411 204.09 541.18 324.79 532.85C349.96 531.43 392.39 503.16 390.21 541.83C377.51 617.07 294.33 623.48 239.62 586.64C236.78 584.96 233.02 587.26 235.97 590.06C328.78 659.54 431.72 622.56 465.87 574.75C512.67 509.22 496.94 400.48 551.54 384.06C390.48 360.58 441.66 464.37 355.25 506.88C294.37 547.89 185.75 463.48 292.03 385.37C344.4 351.72 403.14 366.03 450.25 333.88C502.12 281.236 493.26 237.228 434.1 200.318H434.14Z" fill="#FEFEFE"/>
    <path fill-rule="evenodd" clip-rule="evenodd" d="M343.59 434.71C347.01 432.44 351.15 431.1 355.64 431.1C367.15 431.1 376.51 439.85 376.51 450.63C376.51 461.41 367.15 470.16 355.64 470.16C351.15 470.16 346.97 468.82 343.59 466.55V466.82H343.36C344.59 469.55 345.32 472.65 345.32 475.91C345.32 487.42 336.57 496.79 325.79 496.79C315.01 496.79 306.26 487.42 306.26 475.91C306.26 473.11 306.76 470.43 307.72 467.97C304.84 469.35 301.58 470.16 298.13 470.16C286.62 470.16 277.25 461.41 277.25 450.63C277.25 439.85 286.62 431.1 298.13 431.1C302.61 431.1 306.76 432.41 310.13 434.67C307.68 431.18 306.22 426.84 306.22 422.16C306.22 410.65 314.97 401.29 325.75 401.29C336.53 401.29 345.28 410.65 345.28 422.16C345.28 425.19 344.67 428.11 343.55 430.72V434.71H343.59ZM317.27 438.43H335.42V456.58H317.27V438.43Z" fill="#FEFEFE"/>
    <path d="M98.6599 396.76L98.3499 393.31C101.8 392.73 103.49 390.28 103.3 385.94C102.84 381.84 101.07 379.96 97.9999 380.23C96.0099 380.3 94.9298 381.49 94.8198 383.79L93.7098 391.74C92.9398 395.92 90.6399 398.18 86.7199 398.49C81.6199 398.72 78.6699 395.34 77.8999 388.4C77.5499 384.41 78.1299 381.61 79.5899 379.96C80.9299 377.81 83.1199 376.7 86.2299 376.5L86.5299 380.11C82.3499 380.46 80.3899 383.14 80.7399 388.13C81.2399 392.92 82.9999 395.23 85.9899 395.07C88.5299 395.15 89.9899 393.04 90.4099 388.67L91.1399 382.87C91.7899 378.92 93.8199 376.77 97.2399 376.46C102.65 376.31 105.72 379.27 106.44 385.33C106.94 392.12 104.33 395.92 98.6599 396.68V396.76ZM97.3099 422.81L108.55 421.85L108.86 425.61L81.4699 427.95L81.1599 424.19L93.8999 423.12L92.6699 408.73L79.9299 409.81L79.6299 406.05L107.02 403.71L107.33 407.43L96.0899 408.39L97.3099 422.77V422.81ZM93.0199 449.59L91.0999 438.66L82.7699 437.2L82.1199 433.48L110.97 439L111.7 443.15L86.2999 457.61L85.6099 453.62L92.9799 449.59H93.0199ZM94.5899 439.27L96.0499 447.71L107.33 441.65L107.29 441.5L94.5499 439.31L94.5899 439.27ZM95.4299 479.79L116.92 474.11L117.84 477.6L91.2899 484.66L90.2199 480.6L108.13 461.37L108.09 461.22L86.6099 466.9L85.6898 463.41L112.24 456.35L113.39 460.68L95.4299 479.75V479.79ZM92.9799 492.57L119.57 485.51L122.44 496.4C123.94 503.58 120.6 508.45 112.47 510.98C103.45 512.86 97.8898 510.29 95.8198 503.27L92.9799 492.53V492.57ZM117.61 489.92L97.0099 495.37L98.8499 502.35C100.38 507.34 104.53 509.03 111.24 507.45C117.88 505.5 120.6 501.85 119.37 496.59L117.61 489.92ZM121.41 536.8C128.01 533.85 130.42 529.51 128.66 523.76C126.17 518.04 121.48 516.43 114.58 518.85C107.9 521.61 105.6 525.91 107.63 531.78C110.05 537.26 114.66 538.95 121.45 536.8H121.41ZM122.75 540.3C113.96 542.87 108.02 540.37 104.79 532.81C102.03 524.76 104.83 518.89 113.16 515.16C122.14 512.29 128.28 514.78 131.57 522.61C134.26 530.47 131.31 536.38 122.71 540.3H122.75ZM124.09 565.62L144.12 555.91L145.69 559.13L120.95 571.14L119.11 567.34L133.03 545.09L132.96 544.98L112.97 554.68L111.39 551.42L136.14 539.41L138.1 543.48L124.13 565.62H124.09ZM140.17 584.5L143.01 583.11L148.26 593.93L135.03 600.34L133.99 598.19L136.72 595.89C133.49 595.01 131.04 592.86 129.27 589.48C127.62 586.07 127.24 583.08 128.08 580.54C129.16 576.59 132 573.6 136.6 571.57C144.96 568.19 151.14 570.03 155.13 577.09C157.66 583.42 156.67 588.26 152.14 591.56L150.57 588.33C153.52 585.68 154.06 582.35 152.25 578.36C149.26 573.33 144.58 572.29 138.17 575.17C131.34 578.47 129.23 582.88 131.88 588.41C132.76 590.44 134.11 591.9 135.99 592.74C138.25 593.78 140.9 593.55 143.85 592.09L140.17 584.53V584.5ZM176.89 610.93L179.23 613.85L165.41 624.97C160.08 628.89 155.06 628.08 150.41 622.59C146.31 617.18 146.58 612.43 151.3 608.4L165.57 596.89L167.91 599.8L154.44 610.62C150.53 613.77 149.99 617.15 152.79 620.83C155.82 624.59 159.35 624.9 163.38 621.75L176.85 610.93H176.89ZM177.81 648.45L195.11 634.49L197.37 637.29L175.97 654.52L173.32 651.26L181.87 626.43L181.8 626.32L164.49 640.28L162.23 637.48L183.64 620.25L186.48 623.78L177.85 648.49L177.81 648.45ZM204.47 642.85L185.33 662.57L182.64 659.96L201.79 640.24L204.47 642.85ZM201.06 672.05L221.78 658.55L225.08 661.15L200.18 676.54L196.99 674.05L206.05 646.19L209.34 648.8L201.02 672.05H201.06ZM231.02 696.68L228.99 699.29L213.03 686.78L230.02 665.18L245.72 677.54L243.76 680.03L231.02 670.02L225.73 676.77L237.54 686.05L235.51 688.66L223.69 679.38L218.05 686.59L231.06 696.8L231.02 696.68ZM244.99 694.04L238.85 704.2L235.63 702.25L249.86 678.73L260.79 685.33C265.9 688.51 267.24 692.19 264.82 696.38C263.21 699.02 260.95 700.25 258.07 700.02C259.49 701.71 259.53 703.78 258.19 706.24L255.88 710.65C254.92 711.84 254.85 712.84 255.65 713.68L255.35 714.18L251.36 711.76C251.43 711.22 251.78 710.38 252.39 709.23C253.04 707.96 253.7 706.77 254.43 705.55C256.23 702.78 255.65 700.52 252.74 698.75L245.03 694.07L244.99 694.04ZM251.51 683.25L246.6 691.35L254.04 695.88C257.15 697.87 259.57 697.49 261.29 694.65C262.75 692.04 262.14 689.85 259.45 688.09L251.47 683.25H251.51ZM287.92 707.39L284.77 705.93C286 702.63 284.7 699.98 280.86 697.99C277.1 696.34 274.57 696.91 273.26 699.71C272.3 701.48 272.8 702.98 274.8 704.24L281.09 709.19C284.35 711.91 285.12 715.06 283.47 718.59C281.13 723.12 276.72 724 270.31 721.2C266.66 719.51 264.52 717.59 263.86 715.52C262.67 713.3 262.79 710.84 264.21 708.04L267.47 709.57C265.67 713.37 267.05 716.4 271.54 718.63C275.95 720.59 278.79 720.2 280.17 717.55C281.51 715.41 280.4 713.07 276.83 710.53L272.19 707C269.08 704.43 268.24 701.63 269.7 698.52C272.27 693.77 276.37 692.58 281.97 694.99C288.07 697.99 290.07 702.13 287.92 707.43V707.39ZM299.78 702.98L290.76 728.95L287.19 727.72L296.21 701.75L299.78 702.98ZM304.84 707.89L305.88 704.89L326.9 712.18L325.87 715.18L317.08 712.11L309.1 735.09L305.68 733.9L313.66 710.92L304.88 707.85L304.84 707.89ZM337.3 730.22L334.77 741.04L331.12 740.19L333.65 729.37L327.28 711.07L331.54 712.07L336.15 726.72L346.89 715.67L351.15 716.67L337.34 730.25L337.3 730.22ZM382.26 733.67C382.76 726.46 380.04 722.27 374.13 721.16C367.92 720.7 364.27 724.08 363.16 731.29C362.47 738.47 365.19 742.53 371.29 743.53C377.28 743.99 380.92 740.69 382.23 733.71L382.26 733.67ZM385.99 734.13C384.14 743.07 379.16 747.21 370.95 746.48C362.54 745.14 358.67 739.89 359.28 730.79C360.97 721.51 366.04 717.25 374.51 718.02C382.72 719.36 386.52 724.73 385.99 734.13ZM395.39 734.4L395.12 746.87L391.36 746.79L391.89 719.32L410.96 719.7L410.89 722.85L395.58 722.54L395.42 731.1L408.93 731.37L408.85 734.67L395.35 734.4H395.39ZM444.04 725.23L440.58 725.38C440.12 721.89 437.7 720.16 433.41 720.16C429.3 720.47 427.35 722.16 427.5 725.27C427.5 727.26 428.65 728.37 430.95 728.57L438.86 729.99C443 730.87 445.19 733.29 445.38 737.2C445.45 742.3 441.96 745.14 434.98 745.68C430.99 745.87 428.19 745.22 426.62 743.68C424.54 742.3 423.47 740.04 423.43 736.93L427.04 736.74C427.23 740.92 429.84 742.95 434.87 742.8C439.66 742.46 442.04 740.81 442 737.77C442.19 735.24 440.08 733.71 435.75 733.13L429.99 732.21C426.04 731.41 423.97 729.3 423.82 725.92C423.85 720.51 426.92 717.55 432.99 717.06C439.78 716.83 443.5 719.55 444.07 725.23H444.04ZM472.35 720.24L468.78 720.74C467.4 717.29 464.6 715.75 460.42 716.14C454.7 717.32 452.25 721.39 453.01 728.37C454.05 735.93 457.62 739.27 463.64 738.43C467.78 737.74 470.01 734.86 470.32 729.76L473.88 729.26C473.62 736.16 470.09 740.23 463.3 741.5C455.32 742.3 450.6 738.16 449.14 729.07C448.18 719.9 451.79 714.56 459.96 713.03C466.36 712.45 470.47 714.87 472.31 720.28L472.35 720.24ZM479.45 709L485.55 735.82L481.86 736.66L475.76 709.84L479.45 709ZM512.64 724.23L513.71 727.38L494.53 733.94L485.62 707.92L504.54 701.48L505.58 704.47L490.23 709.73L492.99 717.82L507.19 712.99L508.26 716.14L494.07 720.97L497.02 729.64L512.67 724.31L512.64 724.23ZM534.93 713.68L525.95 693.34L529.25 691.89L540.37 717.02L536.54 718.71L514.78 704.01L514.67 704.09L523.65 724.42L520.35 725.88L509.22 700.75L513.33 698.95L534.96 713.68H534.93ZM560.79 686.75L557.49 688.2C555.18 685.29 552.11 684.56 548.16 686.09C543.02 688.82 541.76 693.42 544.4 699.91C547.47 706.85 551.81 709.11 557.41 706.66C561.21 704.86 562.55 701.48 561.44 696.49L564.74 695.03C566.39 701.75 564.12 706.62 557.91 709.69C550.47 712.64 544.79 709.96 540.87 701.63C537.42 693.08 539.42 686.94 546.86 683.22C552.84 680.91 557.49 682.1 560.75 686.78L560.79 686.75ZM590.64 686.94L592.25 689.85L574.48 699.64L561.21 675.54L578.7 665.91L580.24 668.67L566.04 676.5L570.19 683.98L583.35 676.73L584.96 679.65L571.8 686.9L576.21 694.92L590.67 686.94H590.64ZM613.16 666.56L603.95 672.74L606.02 680.95L602.91 683.06L596.2 654.48L599.69 652.14L623.25 669.44L619.87 671.71L613.2 666.6L613.16 666.56ZM603.1 669.33L610.2 664.57L600.07 656.74L599.96 656.82L603.1 669.36V669.33ZM637.83 649.53L623.86 632.22L626.66 629.96L643.89 651.37L640.63 654.02L615.8 645.46L615.69 645.54L629.65 662.84L626.85 665.11L609.63 643.7L613.16 640.86L637.86 649.49L637.83 649.53ZM649.22 644.85L629.85 625.36L637.83 617.41C643.27 612.54 649.18 613 655.44 618.76C661.58 625.63 662.15 631.73 657.09 637.02L649.22 644.85ZM634.6 624.86L649.64 639.98L654.75 634.87C658.28 631.07 657.7 626.62 652.98 621.6C647.96 616.84 643.47 616.3 639.51 619.99L634.6 624.86ZM654.63 603.3L652.21 601.26L666.56 584.27L668.98 586.3L662.96 593.44L681.56 609.13L679.26 611.89L660.66 596.2L654.63 603.33V603.3ZM698.79 578.01L701.52 579.85L690.12 596.62L667.37 581.2L678.57 564.66L681.18 566.42L672.09 579.85L679.19 584.65L687.63 572.22L690.35 574.06L681.91 586.49L689.51 591.63L698.79 577.97V578.01ZM698.83 543.94L697.14 547.12C693.54 546.2 690.66 547.59 688.51 551.19C686.13 556.49 687.97 560.9 694.07 564.39C700.79 568 705.58 567.08 708.46 561.7C710.34 557.94 709.34 554.45 705.39 551.19L707.08 548.01C712.53 552.27 713.75 557.52 710.76 563.78C706.73 570.68 700.59 572.06 692.38 567.92C684.4 563.32 682.18 557.25 685.75 549.73C689.05 544.21 693.42 542.29 698.87 543.98L698.83 543.94ZM710.42 523.99L699.98 519.73L701.4 516.24L726.88 526.6L725.46 530.09L713.64 525.29L708.19 538.65L720.01 543.44L718.59 546.93L693.11 536.57L694.53 533.08L704.97 537.34L710.42 523.99ZM729.83 500.32L708.38 494.48L709.3 490.99L735.85 498.17L734.74 502.23L709.65 509.91L709.61 510.06L731.06 515.89L730.14 519.39L703.59 512.21L704.78 507.87L729.83 500.35V500.32ZM728.99 466.97C721.81 466.25 717.51 468.78 716.17 474.65C715.48 480.83 718.74 484.59 725.92 485.97C733.05 486.93 737.24 484.36 738.42 478.25C739.08 472.27 735.93 468.55 728.99 467.01V466.97ZM729.6 463.25C738.46 465.4 742.42 470.54 741.42 478.68C739.77 487.04 734.4 490.72 725.34 489.8C716.13 487.81 712.07 482.59 713.1 474.15C714.71 466.02 720.24 462.37 729.6 463.25ZM717.48 451.13L741.34 454.97L743.57 441.19L746.83 441.73L743.99 459.22L716.86 454.85L717.48 451.13ZM734.43 413.26C727.22 413.26 723.23 416.25 722.5 422.24C722.46 428.45 726.07 431.87 733.36 432.44C740.57 432.64 744.45 429.64 744.99 423.47C745.02 417.44 741.49 414.07 734.4 413.26H734.43ZM734.63 409.5C743.68 410.69 748.13 415.41 747.98 423.62C747.21 432.1 742.26 436.36 733.13 436.36C723.77 435.32 719.16 430.56 719.32 422.05C720.09 413.76 725.15 409.58 734.59 409.5H734.63ZM736.31 392.27L733.17 392.43L732.55 380.42L747.25 379.69L747.36 382.07L743.95 383.14C746.56 385.21 748.02 388.17 748.29 391.97C748.48 395.76 747.67 398.68 745.87 400.68C743.34 403.9 739.54 405.55 734.51 405.59C725.5 405.43 720.51 401.33 719.62 393.23C719.78 386.4 722.58 382.34 728.03 381.07L728.22 384.68C724.46 385.98 722.66 388.82 722.77 393.23C723.58 399.03 727.45 401.83 734.47 401.67C742.07 401.29 745.71 398.07 745.41 391.97C745.41 389.74 744.72 387.9 743.34 386.36C741.65 384.52 739.15 383.72 735.85 383.87L736.28 392.27H736.31ZM735.2 362.5L746.29 361.96L746.48 365.72L735.39 366.26L719.55 377.42L719.32 373.09L732.13 364.65L718.55 357.36L718.32 353.02L735.2 362.58V362.5Z" stroke="#FEFEFE" stroke-width="0.411677" stroke-linecap="round" stroke-linejoin="round"/>
    <path d="M98.6599 396.76L98.3499 393.31C101.8 392.73 103.49 390.28 103.3 385.94C102.84 381.84 101.07 379.96 97.9999 380.23C96.0099 380.3 94.9298 381.49 94.8198 383.79L93.7098 391.74C92.9398 395.92 90.6399 398.18 86.7199 398.49C81.6199 398.72 78.6699 395.34 77.8999 388.4C77.5499 384.41 78.1299 381.61 79.5899 379.96C80.9299 377.81 83.1199 376.7 86.2299 376.5L86.5299 380.11C82.3499 380.46 80.3899 383.14 80.7399 388.13C81.2399 392.92 82.9999 395.23 85.9899 395.07C88.5299 395.15 89.9899 393.04 90.4099 388.67L91.1399 382.87C91.7899 378.92 93.8199 376.77 97.2399 376.46C102.65 376.31 105.72 379.27 106.44 385.33C106.94 392.12 104.33 395.92 98.6599 396.68V396.76ZM97.3099 422.81L108.55 421.85L108.86 425.61L81.4699 427.95L81.1599 424.19L93.8999 423.12L92.6699 408.73L79.9299 409.81L79.6299 406.05L107.02 403.71L107.33 407.43L96.0899 408.39L97.3099 422.77V422.81ZM93.0199 449.59L91.0999 438.66L82.7699 437.2L82.1199 433.48L110.97 439L111.7 443.15L86.2999 457.61L85.6099 453.62L92.9799 449.59H93.0199ZM94.5899 439.27L96.0499 447.71L107.33 441.65L107.29 441.5L94.5499 439.31L94.5899 439.27ZM95.4299 479.79L116.92 474.11L117.84 477.6L91.2899 484.66L90.2199 480.6L108.13 461.37L108.09 461.22L86.6099 466.9L85.6898 463.41L112.24 456.35L113.39 460.68L95.4299 479.75V479.79ZM92.9799 492.57L119.57 485.51L122.44 496.4C123.94 503.58 120.6 508.45 112.47 510.98C103.45 512.86 97.8898 510.29 95.8198 503.27L92.9799 492.53V492.57ZM117.61 489.92L97.0099 495.37L98.8499 502.35C100.38 507.34 104.53 509.03 111.24 507.45C117.88 505.5 120.6 501.85 119.37 496.59L117.61 489.92ZM121.41 536.8C128.01 533.85 130.42 529.51 128.66 523.76C126.17 518.04 121.48 516.43 114.58 518.85C107.9 521.61 105.6 525.91 107.63 531.78C110.05 537.26 114.66 538.95 121.45 536.8H121.41ZM122.75 540.3C113.96 542.87 108.02 540.37 104.79 532.81C102.03 524.76 104.83 518.89 113.16 515.16C122.14 512.29 128.28 514.78 131.57 522.61C134.26 530.47 131.31 536.38 122.71 540.3H122.75ZM124.09 565.62L144.12 555.91L145.69 559.13L120.95 571.14L119.11 567.34L133.03 545.09L132.96 544.98L112.97 554.68L111.39 551.42L136.14 539.41L138.1 543.48L124.13 565.62H124.09ZM140.17 584.5L143.01 583.11L148.26 593.93L135.03 600.34L133.99 598.19L136.72 595.89C133.49 595.01 131.04 592.86 129.27 589.48C127.62 586.07 127.24 583.08 128.08 580.54C129.16 576.59 132 573.6 136.6 571.57C144.96 568.19 151.14 570.03 155.13 577.09C157.66 583.42 156.67 588.26 152.14 591.56L150.57 588.33C153.52 585.68 154.06 582.35 152.25 578.36C149.26 573.33 144.58 572.29 138.17 575.17C131.34 578.47 129.23 582.88 131.88 588.41C132.76 590.44 134.11 591.9 135.99 592.74C138.25 593.78 140.9 593.55 143.85 592.09L140.17 584.53V584.5ZM176.89 610.93L179.23 613.85L165.41 624.97C160.08 628.89 155.06 628.08 150.41 622.59C146.31 617.18 146.58 612.43 151.3 608.4L165.57 596.89L167.91 599.8L154.44 610.62C150.53 613.77 149.99 617.15 152.79 620.83C155.82 624.59 159.35 624.9 163.38 621.75L176.85 610.93H176.89ZM177.81 648.45L195.11 634.49L197.37 637.29L175.97 654.52L173.32 651.26L181.87 626.43L181.8 626.32L164.49 640.28L162.23 637.48L183.64 620.25L186.48 623.78L177.85 648.49L177.81 648.45ZM204.47 642.85L185.33 662.57L182.64 659.96L201.79 640.24L204.47 642.85ZM201.06 672.05L221.78 658.55L225.08 661.15L200.18 676.54L196.99 674.05L206.05 646.19L209.34 648.8L201.02 672.05H201.06ZM231.02 696.68L228.99 699.29L213.03 686.78L230.02 665.18L245.72 677.54L243.76 680.03L231.02 670.02L225.73 676.77L237.54 686.05L235.51 688.66L223.69 679.38L218.05 686.59L231.06 696.8L231.02 696.68ZM244.99 694.04L238.85 704.2L235.63 702.25L249.86 678.73L260.79 685.33C265.9 688.51 267.24 692.19 264.82 696.38C263.21 699.02 260.95 700.25 258.07 700.02C259.49 701.71 259.53 703.78 258.19 706.24L255.88 710.65C254.92 711.84 254.85 712.84 255.65 713.68L255.35 714.18L251.36 711.76C251.43 711.22 251.78 710.38 252.39 709.23C253.04 707.96 253.7 706.77 254.43 705.55C256.23 702.78 255.65 700.52 252.74 698.75L245.03 694.07L244.99 694.04ZM251.51 683.25L246.6 691.35L254.04 695.88C257.15 697.87 259.57 697.49 261.29 694.65C262.75 692.04 262.14 689.85 259.45 688.09L251.47 683.25H251.51ZM287.92 707.39L284.77 705.93C286 702.63 284.7 699.98 280.86 697.99C277.1 696.34 274.57 696.91 273.26 699.71C272.3 701.48 272.8 702.98 274.8 704.24L281.09 709.19C284.35 711.91 285.12 715.06 283.47 718.59C281.13 723.12 276.72 724 270.31 721.2C266.66 719.51 264.52 717.59 263.86 715.52C262.67 713.3 262.79 710.84 264.21 708.04L267.47 709.57C265.67 713.37 267.05 716.4 271.54 718.63C275.95 720.59 278.79 720.2 280.17 717.55C281.51 715.41 280.4 713.07 276.83 710.53L272.19 707C269.08 704.43 268.24 701.63 269.7 698.52C272.27 693.77 276.37 692.58 281.97 694.99C288.07 697.99 290.07 702.13 287.92 707.43V707.39ZM299.78 702.98L290.76 728.95L287.19 727.72L296.21 701.75L299.78 702.98ZM304.84 707.89L305.88 704.89L326.9 712.18L325.87 715.18L317.08 712.11L309.1 735.09L305.68 733.9L313.66 710.92L304.88 707.85L304.84 707.89ZM337.3 730.22L334.77 741.04L331.12 740.19L333.65 729.37L327.28 711.07L331.54 712.07L336.15 726.72L346.89 715.67L351.15 716.67L337.34 730.25L337.3 730.22ZM382.26 733.67C382.76 726.46 380.04 722.27 374.13 721.16C367.92 720.7 364.27 724.08 363.16 731.29C362.47 738.47 365.19 742.53 371.29 743.53C377.28 743.99 380.92 740.69 382.23 733.71L382.26 733.67ZM385.99 734.13C384.14 743.07 379.16 747.21 370.95 746.48C362.54 745.14 358.67 739.89 359.28 730.79C360.97 721.51 366.04 717.25 374.51 718.02C382.72 719.36 386.52 724.73 385.99 734.13ZM395.39 734.4L395.12 746.87L391.36 746.79L391.89 719.32L410.96 719.7L410.89 722.85L395.58 722.54L395.42 731.1L408.93 731.37L408.85 734.67L395.35 734.4H395.39ZM444.04 725.23L440.58 725.38C440.12 721.89 437.7 720.16 433.41 720.16C429.3 720.47 427.35 722.16 427.5 725.27C427.5 727.26 428.65 728.37 430.95 728.57L438.86 729.99C443 730.87 445.19 733.29 445.38 737.2C445.45 742.3 441.96 745.14 434.98 745.68C430.99 745.87 428.19 745.22 426.62 743.68C424.54 742.3 423.47 740.04 423.43 736.93L427.04 736.74C427.23 740.92 429.84 742.95 434.87 742.8C439.66 742.46 442.04 740.81 442 737.77C442.19 735.24 440.08 733.71 435.75 733.13L429.99 732.21C426.04 731.41 423.97 729.3 423.82 725.92C423.85 720.51 426.92 717.55 432.99 717.06C439.78 716.83 443.5 719.55 444.07 725.23H444.04ZM472.35 720.24L468.78 720.74C467.4 717.29 464.6 715.75 460.42 716.14C454.7 717.32 452.25 721.39 453.01 728.37C454.05 735.93 457.62 739.27 463.64 738.43C467.78 737.74 470.01 734.86 470.32 729.76L473.88 729.26C473.62 736.16 470.09 740.23 463.3 741.5C455.32 742.3 450.6 738.16 449.14 729.07C448.18 719.9 451.79 714.56 459.96 713.03C466.36 712.45 470.47 714.87 472.31 720.28L472.35 720.24ZM479.45 709L485.55 735.82L481.86 736.66L475.76 709.84L479.45 709ZM512.64 724.23L513.71 727.38L494.53 733.94L485.62 707.92L504.54 701.48L505.58 704.47L490.23 709.73L492.99 717.82L507.19 712.99L508.26 716.14L494.07 720.97L497.02 729.64L512.67 724.31L512.64 724.23ZM534.93 713.68L525.95 693.34L529.25 691.89L540.37 717.02L536.54 718.71L514.78 704.01L514.67 704.09L523.65 724.42L520.35 725.88L509.22 700.75L513.33 698.95L534.96 713.68H534.93ZM560.79 686.75L557.49 688.2C555.18 685.29 552.11 684.56 548.16 686.09C543.02 688.82 541.76 693.42 544.4 699.91C547.47 706.85 551.81 709.11 557.41 706.66C561.21 704.86 562.55 701.48 561.44 696.49L564.74 695.03C566.39 701.75 564.12 706.62 557.91 709.69C550.47 712.64 544.79 709.96 540.87 701.63C537.42 693.08 539.42 686.94 546.86 683.22C552.84 680.91 557.49 682.1 560.75 686.78L560.79 686.75ZM590.64 686.94L592.25 689.85L574.48 699.64L561.21 675.54L578.7 665.91L580.24 668.67L566.04 676.5L570.19 683.98L583.35 676.73L584.96 679.65L571.8 686.9L576.21 694.92L590.67 686.94H590.64ZM613.16 666.56L603.95 672.74L606.02 680.95L602.91 683.06L596.2 654.48L599.69 652.14L623.25 669.44L619.87 671.71L613.2 666.6L613.16 666.56ZM603.1 669.33L610.2 664.57L600.07 656.74L599.96 656.82L603.1 669.36V669.33ZM637.83 649.53L623.86 632.22L626.66 629.96L643.89 651.37L640.63 654.02L615.8 645.46L615.69 645.54L629.65 662.84L626.85 665.11L609.63 643.7L613.16 640.86L637.86 649.49L637.83 649.53ZM649.22 644.85L629.85 625.36L637.83 617.41C643.27 612.54 649.18 613 655.44 618.76C661.58 625.63 662.15 631.73 657.09 637.02L649.22 644.85ZM634.6 624.86L649.64 639.98L654.75 634.87C658.28 631.07 657.7 626.62 652.98 621.6C647.96 616.84 643.47 616.3 639.51 619.99L634.6 624.86ZM654.63 603.3L652.21 601.26L666.56 584.27L668.98 586.3L662.96 593.44L681.56 609.13L679.26 611.89L660.66 596.2L654.63 603.33V603.3ZM698.79 578.01L701.52 579.85L690.12 596.62L667.37 581.2L678.57 564.66L681.18 566.42L672.09 579.85L679.19 584.65L687.63 572.22L690.35 574.06L681.91 586.49L689.51 591.63L698.79 577.97V578.01ZM698.83 543.94L697.14 547.12C693.54 546.2 690.66 547.59 688.51 551.19C686.13 556.49 687.97 560.9 694.07 564.39C700.79 568 705.58 567.08 708.46 561.7C710.34 557.94 709.34 554.45 705.39 551.19L707.08 548.01C712.53 552.27 713.75 557.52 710.76 563.78C706.73 570.68 700.59 572.06 692.38 567.92C684.4 563.32 682.18 557.25 685.75 549.73C689.05 544.21 693.42 542.29 698.87 543.98L698.83 543.94ZM710.42 523.99L699.98 519.73L701.4 516.24L726.88 526.6L725.46 530.09L713.64 525.29L708.19 538.65L720.01 543.44L718.59 546.93L693.11 536.57L694.53 533.08L704.97 537.34L710.42 523.99ZM729.83 500.32L708.38 494.48L709.3 490.99L735.85 498.17L734.74 502.23L709.65 509.91L709.61 510.06L731.06 515.89L730.14 519.39L703.59 512.21L704.78 507.87L729.83 500.35V500.32ZM728.99 466.97C721.81 466.25 717.51 468.78 716.17 474.65C715.48 480.83 718.74 484.59 725.92 485.97C733.05 486.93 737.24 484.36 738.42 478.25C739.08 472.27 735.93 468.55 728.99 467.01V466.97ZM729.6 463.25C738.46 465.4 742.42 470.54 741.42 478.68C739.77 487.04 734.4 490.72 725.34 489.8C716.13 487.81 712.07 482.59 713.1 474.15C714.71 466.02 720.24 462.37 729.6 463.25ZM717.48 451.13L741.34 454.97L743.57 441.19L746.83 441.73L743.99 459.22L716.86 454.85L717.48 451.13ZM734.43 413.26C727.22 413.26 723.23 416.25 722.5 422.24C722.46 428.45 726.07 431.87 733.36 432.44C740.57 432.64 744.45 429.64 744.99 423.47C745.02 417.44 741.49 414.07 734.4 413.26H734.43ZM734.63 409.5C743.68 410.69 748.13 415.41 747.98 423.62C747.21 432.1 742.26 436.36 733.13 436.36C723.77 435.32 719.16 430.56 719.32 422.05C720.09 413.76 725.15 409.58 734.59 409.5H734.63ZM736.31 392.27L733.17 392.43L732.55 380.42L747.25 379.69L747.36 382.07L743.95 383.14C746.56 385.21 748.02 388.17 748.29 391.97C748.48 395.76 747.67 398.68 745.87 400.68C743.34 403.9 739.54 405.55 734.51 405.59C725.5 405.43 720.51 401.33 719.62 393.23C719.78 386.4 722.58 382.34 728.03 381.07L728.22 384.68C724.46 385.98 722.66 388.82 722.77 393.23C723.58 399.03 727.45 401.83 734.47 401.67C742.07 401.29 745.71 398.07 745.41 391.97C745.41 389.74 744.72 387.9 743.34 386.36C741.65 384.52 739.15 383.72 735.85 383.87L736.28 392.27H736.31ZM735.2 362.5L746.29 361.96L746.48 365.72L735.39 366.26L719.55 377.42L719.32 373.09L732.13 364.65L718.55 357.36L718.32 353.02L735.2 362.58V362.5Z" fill="#FEFEFE"/>
    <path fill-rule="evenodd" clip-rule="evenodd" d="M103.49 275.941L114.42 284.459L117.53 284.037L124.71 289.562C124.71 289.562 116.23 322.17 115.77 322.79C115.31 323.4 112.31 326.93 112.31 326.93L110.13 325.24C110.13 325.24 89.99 286.185 89.41 285.994C88.83 285.802 87.45 286.262 87.45 286.262C87.45 286.262 103.15 329.12 106.02 332.73C108.9 336.33 112.31 337.14 112.7 337.21C113.08 337.25 116.19 337.18 119.41 328.54C122.64 319.91 128.35 298.31 129.43 296.353C130.5 294.396 133.26 288.871 133.3 288.104C133.34 287.337 134.15 282.387 124.94 281.236C122.75 280.469 120.56 278.167 120.56 278.167C120.56 278.167 126.13 249.774 127.97 247.549C129.81 245.324 132.88 240.374 135.87 241.871C138.86 243.329 141.09 250.734 140.09 262.743C139.13 274.752 139.94 277.783 139.94 277.783C139.94 277.783 144.12 265.582 144.77 260.134C145.43 254.686 147.08 244.173 142.51 239.07C137.94 233.967 131.84 237.919 130.16 239.185C128.47 240.451 125.32 245.938 125.32 245.938C125.32 245.938 115.81 273.946 116.5 275.711C117.23 277.476 111.74 272.411 111.74 272.411C111.74 272.411 110.36 269.035 109.67 268.498C108.98 267.961 105.72 267.654 104.22 269.227C102.68 270.8 103.45 275.98 103.45 275.98L103.49 275.941Z" fill="#FEFEFE"/>
    <path fill-rule="evenodd" clip-rule="evenodd" d="M236.62 219.809C237.24 220.039 240.84 219.656 244.26 219.963C247.9 220.308 251.32 221.344 251.43 221.229C252.74 220.615 254.73 219.579 255.58 217.699C247.9 206.38 242.11 197.402 234.82 186.544C234.13 185.585 235.82 184.127 235.28 183.705C233.75 182.401 233.67 183.13 233.09 182.362C229.33 177.182 225.77 174.036 223.92 177.067L228.6 188.731C226.84 192.875 226.76 193.22 224.96 197.364C223.16 198.899 222.54 198.86 222.04 196.021C220.85 189.537 218.55 180.175 219.32 172.463C219.63 169.432 220.7 166.708 222.01 164.406C224.04 159.994 231.14 140.541 229.14 137.779C226.46 134.095 219.05 136.666 216.6 139.313C219.9 141.078 223.2 141.999 221.05 146.757L218.51 152.397L211.88 138.815C210.99 137.126 203.97 132.522 202.32 135.477C199.1 141.385 204.89 150.056 207.69 157.231C214.06 173.422 205.01 170.161 204.97 181.288L206.85 180.904L211.84 177.106L212.99 177.336C217.09 184.165 214.45 196.405 219.01 202.659C225.34 211.368 228.22 198.093 231.44 193.182C237.12 202.505 243.64 213.478 243.53 213.785C242.57 215.819 239.54 217.584 236.55 219.771L236.62 219.809Z" fill="#FEFEFE"/>
    <path fill-rule="evenodd" clip-rule="evenodd" d="M232.79 211.176C232.79 211.176 230.91 212.174 230.75 212.98C230.56 213.785 226.03 230.092 222.27 232.586C218.51 235.08 218.02 236.192 217.98 236.614C217.94 237.036 218.74 242.408 222.12 240.298C225.54 238.187 230.25 233.545 231.83 225.066C233.4 216.586 232.75 211.138 232.75 211.138L232.79 211.176Z" fill="#FEFEFE"/>
    <path fill-rule="evenodd" clip-rule="evenodd" d="M242.34 195.215C242.34 195.215 251.82 196.443 252.81 198.362C253.81 200.28 254.35 201.047 254.73 201.354C255.12 201.7 262.18 203.004 264.78 201.7C267.43 200.357 268.12 197.402 266.36 195.714C265.59 194.985 260.41 191.992 255.46 192.069C248.75 192.184 241.96 195.561 242.34 195.215Z" fill="#FEFEFE"/>
    <path fill-rule="evenodd" clip-rule="evenodd" d="M314.28 69.599C314.28 69.599 311.94 67.681 309.83 69.791C307.72 71.901 308.75 72.362 307.03 75.968C305.3 79.575 302.12 86.903 301.89 87.056C301.62 87.21 300.93 89.09 303.27 87.517C305.61 85.944 312.74 80.5339 314.51 75.6229C316.27 70.7119 314.28 69.5609 314.28 69.5609V69.599ZM303.8 99.4879C303.8 99.4879 306.91 95.497 307.76 97.377C308.6 99.257 310.06 105.55 310.06 105.55C310.06 105.55 312.21 105.933 311.78 108.044C311.36 110.192 308.87 116.101 308.87 116.101C308.87 116.101 314.16 141.424 315.51 146.22C316.85 151.054 319.61 161.413 319.07 163.37C318.54 165.327 317.08 166.324 316.35 166.44C315.58 166.555 314.12 165.864 314.12 165.864C314.12 165.864 313.47 164.559 313.66 163.946C313.86 163.332 314.39 162.795 314.39 162.795L311.52 150.555C311.52 150.555 310.86 149.596 309.44 150.325C308.02 151.054 307.1 152.128 307.1 152.128C307.1 152.128 305.03 153.855 302.88 153.126C300.73 152.397 299.89 151.706 299.66 151.476C299.47 151.246 296.94 149.75 297.47 144.647C298.01 139.544 302.42 117.29 302.58 116.37C302.77 115.449 303.11 116.331 301.43 116.638C299.74 116.945 286.31 127.112 285.77 127.228C285.2 127.343 285.04 124.926 285.16 124.542C285.27 124.197 295.44 111.612 304.96 105.627L303.8 99.564V99.4879ZM307.83 128.264C307.83 128.264 307.83 143.265 307.45 143.572C307.07 143.841 305.19 144.071 305.26 143.879C305.34 143.649 304.61 136.628 304.92 136.359C305.22 136.091 307.83 128.264 307.83 128.264ZM321.07 89.09C321.07 89.09 323.29 90.3179 323.41 90.9699C323.52 91.6219 324.87 96.917 324.87 96.917C324.87 96.917 330.78 91.584 330.2 89.474C329.59 87.325 325.21 85.7519 324.18 86.0969C323.14 86.4429 321.84 86.788 321.84 86.788L321.07 89.09ZM324.48 101.368L330.58 100.37C330.58 100.37 335.15 103.401 335.38 104.13C335.61 104.859 328.01 119.746 329.39 122.24C330.78 124.734 331.01 124.043 331.01 124.043L340.52 103.555C340.52 103.555 335.46 69.446 336.8 65.877C338.14 62.309 342.06 60.966 343.82 62.539C345.59 64.113 352.15 69.369 352.3 80.112C352.45 90.855 348.69 100.946 347.85 108.351C347.01 115.756 353.53 130.335 355.41 143.035C357.29 155.735 361.09 185.163 360.2 186.391C358.52 188.77 357.1 183.897 356.94 183.245C355.1 175.456 349.08 149.327 348.35 144.186C347.54 138.162 342.78 114.374 342.78 114.374C342.78 114.374 335.88 129.338 332.35 131.947C328.82 134.556 327.48 132.407 326.86 131.985C326.29 131.563 323.64 130.22 323.52 127.535C323.45 124.849 328.05 113.53 327.94 111.573C327.82 109.617 327.25 109.425 327.25 109.425C327.25 109.425 323.45 107.2 323.29 105.473C323.14 103.746 324.45 101.329 324.45 101.329L324.48 101.368ZM342.36 77.887L344.09 94.577C344.09 94.577 347.39 86.251 347.31 83.335C347.27 80.419 347.31 78.922 347.31 78.922L344.24 66.645C344.24 66.645 342.44 64.9569 341.71 67.2199C340.98 69.5219 342.32 77.848 342.32 77.848L342.36 77.887Z" fill="#FEFEFE"/>
    <path fill-rule="evenodd" clip-rule="evenodd" d="M459.96 93.8479C459.96 93.8479 458.73 97.7609 457.35 99.1419C455.97 100.524 447.68 103.823 446.49 103.746C445.3 103.631 445.49 106.125 446.03 106.893C446.57 107.622 448.49 108.849 450.33 109.233C452.17 109.617 453.21 109.809 453.21 109.809C453.21 109.809 451.94 118.441 449.91 121.626C447.87 124.849 448.79 126.23 444.61 129.415C440.43 132.637 413.53 149.596 413.53 149.596C413.53 149.596 412.04 152.052 413.53 152.972C415.03 153.893 415.34 154.277 417.37 154.315C419.44 154.354 442.73 138.815 442.73 138.815C442.73 138.815 438.17 157.231 436.05 160.07C433.94 162.91 430.15 169.893 429.49 169.893C428.8 169.893 428.19 172.271 430.15 172.31C432.14 172.348 439.12 167.36 442.5 158.229C445.88 149.097 451.44 130.949 451.44 130.949C451.44 130.949 458.38 124.235 458.65 123.851C458.88 123.506 459.08 121.626 458.08 121.626C457.04 121.626 455.43 122.93 455.43 122.93L458.5 111.573C459.34 108.504 459.27 108.236 461.72 106.279C465.44 103.324 472.43 97.5689 472 96.1109C471.47 94.1549 470.59 94.9989 469.7 94.9989C468.82 94.9989 465.21 95.9189 465.21 95.9189C465.21 95.9189 468.13 88.2079 469.4 84.6009C470.66 81.0329 472.47 75.2008 466.98 74.8938C461.49 74.5868 462.6 79.9198 462.22 81.3778C461.84 82.8358 459.88 93.7318 459.88 93.7318L459.96 93.8479Z" fill="#FEFEFE"/>
    <path fill-rule="evenodd" clip-rule="evenodd" d="M493.3 77.465C493.3 77.465 491.03 76.582 490.65 79.153C490.23 81.723 485.59 95.306 484.32 95.919C483.05 96.533 473.73 100.217 473.23 100.946C472.73 101.636 471.05 103.631 472.39 104.207C473.73 104.782 477.11 105.55 477.11 105.55L476.76 108.274C476.76 108.274 469.7 118.441 469.66 119.746C469.63 121.05 470.59 123.045 471.74 123.429C472.85 123.813 476.95 122.777 478.37 122.317C479.79 121.856 481.44 121.856 482.02 122.01C482.63 122.163 483.48 124.12 483.28 125.961C483.09 127.803 482.71 130.374 482.71 130.374C482.71 130.374 480.71 133.328 480.02 133.904C479.33 134.479 479.1 134.364 479.1 134.364C479.1 134.364 471.85 127.726 471.39 127.611C470.93 127.496 467.59 126.422 467.13 127.074C466.67 127.726 466.83 130.22 466.83 130.22C466.83 130.22 474.35 136.781 474.46 137.74C474.58 138.7 473.58 139.851 471.16 141.846C468.74 143.841 465.87 145.26 464.02 145.222C462.18 145.184 459.65 145.529 458.96 145.452C458.31 145.414 457.73 145.337 457.66 146.181C457.54 147.025 460.65 148.905 462.26 149.212C463.87 149.519 466.71 149.289 467.59 148.944C468.48 148.637 473.35 146.527 474.19 146.028C475.04 145.529 478.34 142.997 478.34 142.997C478.34 142.997 489 149.404 491.38 150.095C493.8 150.785 495.18 150.517 496.48 150.479C497.79 150.44 499.4 148.714 499.71 147.678C500.01 146.68 500.4 143.419 498.67 142.92C496.9 142.421 493.91 141.654 492.8 141.117C491.69 140.58 488.12 138.815 488.12 138.815L488.2 137.932C488.2 137.932 496.37 131.602 496.48 130.067C496.6 128.57 497.94 125.271 495.87 123.045C493.8 120.782 492.03 117.137 487.89 116.715C483.78 116.331 481.17 116.676 480.83 116.753C480.48 116.83 478.53 116.753 478.53 116.753C478.53 116.753 481.98 109.31 483.17 108.351C484.36 107.391 485.7 106.125 488.62 105.166C491.57 104.207 503.2 97.301 504.85 91.968C506.5 86.596 506.04 86.75 506.04 86.75C506.04 86.75 493.61 93.809 493.15 93.809C492.68 93.809 492.34 93.464 492.34 93.464C492.68 91.162 493.07 89.09 493.53 86.289C493.91 84.102 494.49 81.186 494.07 79.383C493.8 78.309 493.26 77.426 493.26 77.426L493.3 77.465Z" fill="#FEFEFE"/>
    <path fill-rule="evenodd" clip-rule="evenodd" d="M581.66 178.947C581.66 178.947 578.51 181.71 576.9 181.48C575.25 181.25 569.96 181.019 566.85 179.561C563.74 178.103 557.75 175.418 555.64 175.187C553.53 174.957 548.47 174.689 548.47 174.689C548.47 174.689 547.74 178.257 548.39 179.062C549.05 179.83 550.04 181.518 551.81 182.899C553.57 184.281 558.22 186.391 559.1 187.081C559.98 187.772 561.59 188.654 561.75 189.192C561.94 189.69 562.63 191.072 562.28 191.57C561.94 192.108 559.9 194.448 559.33 194.525C558.75 194.602 545.71 198.4 542.52 200.779C539.34 203.196 540.3 204.04 540.3 204.04C540.3 204.04 542.56 207.186 547.86 207.071C553.19 206.956 558.02 205.843 558.02 205.843L569.84 215.167C569.84 215.167 574.79 220.96 574.6 222.418C574.41 223.876 574.25 223.377 573.83 223.454C573.41 223.531 566.27 224.643 565.97 225.142C565.62 225.641 567.58 227.943 571.26 228.25C574.94 228.595 578.82 229.133 580.74 228.941C582.66 228.749 583.35 227.982 583.46 226.907C583.54 225.871 583.23 220.577 577.63 215.972C572.03 211.368 561.13 203.81 561.13 203.81C561.13 203.81 566.85 199.397 570.42 198.592C573.98 197.786 574.44 197.326 574.44 197.326C574.44 197.326 583.08 200.702 593.51 194.755C603.95 188.808 601.57 189.844 605.6 188.846C609.63 187.849 617.03 184.971 619.1 181.058C621.18 177.144 620.52 176.147 620.52 176.147C620.52 176.147 618.91 175.724 617.57 177.374C616.26 179.062 614.27 180.674 613.12 181.134C611.97 181.556 605.1 185.316 599.38 185.93C593.67 186.544 594.01 185.24 594.01 185.24L592.94 184.396L602.57 174.151C602.57 174.151 608.51 168.128 609.55 166.977C610.59 165.826 615.8 158.497 611.89 155.888C607.98 153.279 581.62 178.947 581.62 178.947H581.66Z" fill="#FEFEFE"/>
    <path fill-rule="evenodd" clip-rule="evenodd" d="M691.92 256.105C691.92 256.105 667.79 258.868 665.76 257.256C663.72 255.645 661.27 252.422 661.5 250.887C661.73 249.352 661.5 245.861 663.38 244.633C665.26 243.405 665.8 241.41 670.48 245.132C675.16 248.892 678.07 251.424 679.99 252.038C681.91 252.652 691.96 256.105 691.96 256.105H691.92Z" fill="#FEFEFE"/>
    <path fill-rule="evenodd" clip-rule="evenodd" d="M709.99 268.997L704.01 274.138C704.01 274.138 699.6 274.598 699.02 273.946C698.41 273.332 694.65 261.63 699.37 254.57C704.09 247.511 705.89 252.345 707.16 253.688C708.42 255.031 738.92 270.8 750.24 283.653C761.56 296.506 738.92 297.696 738.31 297.427C737.7 297.159 732.59 297.312 731.1 296.315C730.21 295.739 713.79 288.526 698.48 283.576C686.86 279.816 675.27 277.936 675.27 277.936C675.27 277.936 677.69 282.042 679.26 285.572C680.87 289.101 678.04 293.245 675.85 294.089C673.66 294.972 662.84 299.691 662.84 299.691C662.84 299.691 675.35 311.78 676.23 313.2C677.11 314.62 678.96 319.18 677.69 320.26C676.42 321.33 674.2 320.83 670.59 318.99C666.99 317.19 659.47 315 659.47 315C659.47 315 654.17 325.21 646.15 322.87C638.13 320.56 637.21 315.77 637.21 315.77C637.21 315.77 631.53 304.18 634.14 299.921C636.75 295.662 639.55 295.317 639.55 295.317L656.2 295.01L667.68 286.185L668.14 284.958L662.19 278.282C662.19 278.282 662.57 275.366 664.26 274.445C666.83 273.025 680.3 276.632 696.53 278.128C715.83 279.893 736.62 280.852 736.62 280.852C734.82 279.855 733.55 278.474 731.79 277.476C729.22 276.018 726.22 275.02 723.42 273.601L709.99 269.035V268.997ZM660.77 307.71C660.77 307.71 660.62 310.59 660.35 311.35C660.08 312.12 666.83 312.93 666.83 312.93C666.83 312.93 665.22 310.32 660.81 307.71H660.77ZM649.84 301.99C649.84 301.99 653.75 304.64 652.02 308.09C650.3 311.55 647.23 314.85 647.23 314.85C645.77 313 644.39 311.16 642.97 309.28C642.89 309.01 642.62 308.17 642.51 307.9L642.78 305.68L643.31 304.3L646.34 301.42L649.84 302.03V301.99Z" fill="#FEFEFE"/>
    </svg>
    